<svg width="140" height="58" viewBox="0 0 140 58" fill="none" xmlns="http://www.w3.org/2000/svg">
<g clip-path="url(#clip0_0_3)">
<path d="M21.12 36.8C20.6133 35.8667 19.88 35.16 18.92 34.68C17.9867 34.1733 16.88 33.92 15.6 33.92C13.3867 33.92 11.6133 34.6533 10.28 36.12C8.94667 37.56 8.28 39.4933 8.28 41.92C8.28 44.5067 8.97333 46.5333 10.36 48C11.7733 49.44 13.7067 50.16 16.16 50.16C17.84 50.16 19.2533 49.7333 20.4 48.88C21.5733 48.0267 22.4267 46.8 22.96 45.2H14.28V40.16H29.16V46.52C28.6533 48.2267 27.7867 49.8133 26.56 51.28C25.36 52.7467 23.8267 53.9333 21.96 54.84C20.0933 55.7467 17.9867 56.2 15.64 56.2C12.8667 56.2 10.3867 55.6 8.2 54.4C6.04 53.1733 4.34667 51.48 3.12 49.32C1.92 47.16 1.32 44.6933 1.32 41.92C1.32 39.1467 1.92 36.68 3.12 34.52C4.34667 32.3333 6.04 30.64 8.2 29.44C10.36 28.2133 12.8267 27.6 15.6 27.6C18.96 27.6 21.7867 28.4133 24.08 30.04C26.4 31.6667 27.9333 33.92 28.68 36.8H21.12ZM50.4288 51.04H39.9488L38.2688 56H31.1088L41.2688 27.92H49.1888L59.3488 56H52.1088L50.4288 51.04ZM48.6688 45.76L45.1888 35.48L41.7488 45.76H48.6688ZM69.2809 50.72H78.2409V56H62.4409V27.92H69.2809V50.72ZM98.9834 51.04H88.5034L86.8234 56H79.6634L89.8234 27.92H97.7434L107.903 56H100.663L98.9834 51.04ZM97.2234 45.76L93.7434 35.48L90.3034 45.76H97.2234ZM136.116 56H129.276L117.836 38.68V56H110.996V27.92H117.836L129.276 45.32V27.92H136.116V56Z" fill="white"/>
<path d="M5.728 6.768V18H2.992V6.768H5.728ZM20.9588 18H18.2228L13.6467 11.072V18H10.9107V6.768H13.6467L18.2228 13.728V6.768H20.9588V18ZM36.686 6.768L32.702 18H29.278L25.294 6.768H28.206L30.99 15.248L33.79 6.768H36.686ZM43.7655 8.96V11.232H47.4295V13.344H43.7655V15.808H47.9095V18H41.0295V6.768H47.9095V8.96H43.7655ZM58.6137 18L56.2777 13.76H55.6217V18H52.8857V6.768H57.4777C58.3631 6.768 59.1151 6.92267 59.7337 7.232C60.3631 7.54133 60.8324 7.968 61.1417 8.512C61.4511 9.04533 61.6058 9.64267 61.6058 10.304C61.6058 11.0507 61.3924 11.7173 60.9657 12.304C60.5497 12.8907 59.9311 13.3067 59.1097 13.552L61.7017 18H58.6137ZM55.6217 11.824H57.3177C57.8191 11.824 58.1924 11.7013 58.4377 11.456C58.6937 11.2107 58.8217 10.864 58.8217 10.416C58.8217 9.98933 58.6937 9.65333 58.4377 9.408C58.1924 9.16267 57.8191 9.04 57.3177 9.04H55.6217V11.824ZM70.5873 18.112C69.7659 18.112 69.0299 17.9787 68.3793 17.712C67.7286 17.4453 67.2059 17.0507 66.8113 16.528C66.4273 16.0053 66.2246 15.376 66.2033 14.64H69.1153C69.1579 15.056 69.3019 15.376 69.5473 15.6C69.7926 15.8133 70.1126 15.92 70.5073 15.92C70.9126 15.92 71.2326 15.8293 71.4673 15.648C71.7019 15.456 71.8193 15.1947 71.8193 14.864C71.8193 14.5867 71.7233 14.3573 71.5313 14.176C71.3499 13.9947 71.1206 13.8453 70.8433 13.728C70.5766 13.6107 70.1926 13.4773 69.6913 13.328C68.9659 13.104 68.3739 12.88 67.9153 12.656C67.4566 12.432 67.0619 12.1013 66.7313 11.664C66.4006 11.2267 66.2353 10.656 66.2353 9.952C66.2353 8.90667 66.6139 8.09067 67.3713 7.504C68.1286 6.90667 69.1153 6.608 70.3313 6.608C71.5686 6.608 72.5659 6.90667 73.3233 7.504C74.0806 8.09067 74.4859 8.912 74.5393 9.968H71.5793C71.5579 9.60533 71.4246 9.32267 71.1793 9.12C70.9339 8.90667 70.6193 8.8 70.2352 8.8C69.9046 8.8 69.6379 8.89067 69.4353 9.072C69.2326 9.24267 69.1313 9.49333 69.1313 9.824C69.1313 10.1867 69.3019 10.4693 69.6432 10.672C69.9846 10.8747 70.5179 11.0933 71.2433 11.328C71.9686 11.5733 72.5553 11.808 73.0033 12.032C73.4619 12.256 73.8566 12.5813 74.1873 13.008C74.5179 13.4347 74.6833 13.984 74.6833 14.656C74.6833 15.296 74.5179 15.8773 74.1873 16.4C73.8673 16.9227 73.3979 17.3387 72.7793 17.648C72.1606 17.9573 71.4299 18.112 70.5873 18.112ZM82.303 6.768V18H79.567V6.768H82.303ZM92.7978 18.112C91.7418 18.112 90.7711 17.8667 89.8858 17.376C89.0111 16.8853 88.3124 16.2027 87.7898 15.328C87.2778 14.4427 87.0218 13.4507 87.0218 12.352C87.0218 11.2533 87.2778 10.2667 87.7898 9.392C88.3124 8.51733 89.0111 7.83467 89.8858 7.344C90.7711 6.85333 91.7418 6.608 92.7978 6.608C93.8538 6.608 94.8191 6.85333 95.6938 7.344C96.5791 7.83467 97.2724 8.51733 97.7738 9.392C98.2858 10.2667 98.5418 11.2533 98.5418 12.352C98.5418 13.4507 98.2858 14.4427 97.7738 15.328C97.2618 16.2027 96.5684 16.8853 95.6938 17.376C94.8191 17.8667 93.8538 18.112 92.7978 18.112ZM92.7978 15.616C93.6938 15.616 94.4084 15.3173 94.9418 14.72C95.4858 14.1227 95.7578 13.3333 95.7578 12.352C95.7578 11.36 95.4858 10.5707 94.9418 9.984C94.4084 9.38667 93.6938 9.088 92.7978 9.088C91.8911 9.088 91.1658 9.38133 90.6218 9.968C90.0884 10.5547 89.8218 11.3493 89.8218 12.352C89.8218 13.344 90.0884 14.1387 90.6218 14.736C91.1658 15.3227 91.8911 15.616 92.7978 15.616ZM113.312 18H110.576L106 11.072V18H103.264V6.768H106L110.576 13.728V6.768H113.312V18ZM121.231 8.96V11.232H124.895V13.344H121.231V15.808H125.375V18H118.495V6.768H125.375V8.96H121.231ZM134.415 18.112C133.594 18.112 132.858 17.9787 132.207 17.712C131.557 17.4453 131.034 17.0507 130.639 16.528C130.255 16.0053 130.053 15.376 130.031 14.64H132.943C132.986 15.056 133.13 15.376 133.375 15.6C133.621 15.8133 133.941 15.92 134.335 15.92C134.741 15.92 135.061 15.8293 135.295 15.648C135.53 15.456 135.647 15.1947 135.647 14.864C135.647 14.5867 135.551 14.3573 135.359 14.176C135.178 13.9947 134.949 13.8453 134.671 13.728C134.405 13.6107 134.021 13.4773 133.519 13.328C132.794 13.104 132.202 12.88 131.743 12.656C131.285 12.432 130.89 12.1013 130.559 11.664C130.229 11.2267 130.063 10.656 130.063 9.952C130.063 8.90667 130.442 8.09067 131.199 7.504C131.957 6.90667 132.943 6.608 134.159 6.608C135.397 6.608 136.394 6.90667 137.151 7.504C137.909 8.09067 138.314 8.912 138.367 9.968H135.407C135.386 9.60533 135.253 9.32267 135.007 9.12C134.762 8.90667 134.447 8.8 134.063 8.8C133.733 8.8 133.466 8.89067 133.263 9.072C133.061 9.24267 132.959 9.49333 132.959 9.824C132.959 10.1867 133.13 10.4693 133.471 10.672C133.813 10.8747 134.346 11.0933 135.071 11.328C135.797 11.5733 136.383 11.808 136.831 12.032C137.29 12.256 137.685 12.5813 138.015 13.008C138.346 13.4347 138.511 13.984 138.511 14.656C138.511 15.296 138.346 15.8773 138.015 16.4C137.695 16.9227 137.226 17.3387 136.607 17.648C135.989 17.9573 135.258 18.112 134.415 18.112Z" fill="white"/>
</g>
<defs>
<clipPath id="clip0_0_3">
<rect width="140" height="58" fill="white"/>
</clipPath>
</defs>
</svg>
